<svg xmlns="http://www.w3.org/2000/svg" width="31" height="28.612" viewBox="0 0 31 28.612">
  <g id="carrito" transform="translate(0 -1.194)">
    <path id="Trazado_1" data-name="Trazado 1" d="M28.646,10.991h-1.1L22.6,1.677a.908.908,0,1,0-1.6.851l4.487,8.464H5.645l4.488-8.464a.908.908,0,1,0-1.605-.851L3.589,10.991H2.354a2.354,2.354,0,0,0,0,4.708h.065c0,.013,0,.026.006.039L4.319,26.36a4.176,4.176,0,0,0,4.116,3.447H22.7a4.176,4.176,0,0,0,4.116-3.447l1.894-10.621c0-.014,0-.027.006-.04a2.354,2.354,0,0,0-.067-4.707ZM25.024,26.041A2.362,2.362,0,0,1,22.7,27.99H8.435a2.361,2.361,0,0,1-2.327-1.949L4.264,15.7h22.6Zm3.622-12.157H2.354a.538.538,0,0,1,0-1.075H28.646a.538.538,0,0,1,0,1.075Z" fill="#fff"/>
    <path id="Trazado_2" data-name="Trazado 2" d="M15.461,16.96a.908.908,0,0,0-.908.908v7.953a.908.908,0,1,0,1.816,0V17.868A.908.908,0,0,0,15.461,16.96Z" fill="#fff"/>
    <path id="Trazado_3" data-name="Trazado 3" d="M12.362,25.67l-1.34-7.953a.908.908,0,1,0-1.791.3l1.34,7.953a.908.908,0,0,0,1.791-.3Z" fill="#fff"/>
    <path id="Trazado_4" data-name="Trazado 4" d="M20.882,16.973a.909.909,0,0,0-1.046.745L18.5,25.67a.908.908,0,1,0,1.791.3l1.34-7.953A.908.908,0,0,0,20.882,16.973Z" fill="#fff"/>
  </g>
</svg>
