<svg id="Grupo_2" data-name="Grupo 2" xmlns="http://www.w3.org/2000/svg" width="44" height="40.611" viewBox="0 0 44 40.611">
  <path id="Trazado_5" data-name="Trazado 5" d="M40.659,13.906H39.093L32.083.686a1.289,1.289,0,1,0-2.278,1.208l6.369,12.013H8.012L14.382,1.893A1.289,1.289,0,1,0,12.1.686L5.094,13.906H3.341a3.341,3.341,0,0,0,0,6.683h.093c0,.018,0,.037.008.055L6.131,35.719a5.927,5.927,0,0,0,5.842,4.892H32.215a5.927,5.927,0,0,0,5.841-4.892l2.688-15.075c0-.019.006-.038.009-.058a3.341,3.341,0,0,0-.095-6.68Zm-5.141,21.36a3.352,3.352,0,0,1-3.3,2.766H11.972a3.352,3.352,0,0,1-3.3-2.766L6.052,20.589H38.136Zm5.141-17.256H3.341a.763.763,0,0,1,0-1.526H40.659a.763.763,0,0,1,0,1.526Z" fill="#612999"/>
  <path id="Trazado_6" data-name="Trazado 6" d="M21.944,22.378a1.289,1.289,0,0,0-1.289,1.289V34.955a1.289,1.289,0,0,0,2.578,0V23.667A1.289,1.289,0,0,0,21.944,22.378Z" fill="#612999"/>
  <path id="Trazado_7" data-name="Trazado 7" d="M17.546,34.741l-1.9-11.288a1.289,1.289,0,1,0-2.542.428L15,35.169a1.289,1.289,0,1,0,2.542-.428Z" fill="#612999"/>
  <path id="Trazado_8" data-name="Trazado 8" d="M29.639,22.4a1.29,1.29,0,0,0-1.485,1.057l-1.9,11.288a1.289,1.289,0,1,0,2.542.428l1.9-11.288A1.289,1.289,0,0,0,29.639,22.4Z" fill="#612999"/>
</svg>
