<svg id="Grupo_3" data-name="Grupo 3" xmlns="http://www.w3.org/2000/svg" width="28.578" height="31" viewBox="0 0 28.578 31">
  <path id="Trazado_9" data-name="Trazado 9" d="M27.367,5.025H20.041V3.633A3.637,3.637,0,0,0,16.408,0H12.17A3.637,3.637,0,0,0,8.537,3.633V5.025H1.211a1.211,1.211,0,1,0,0,2.422H2.465L3.941,26.579V26.6A4.844,4.844,0,0,0,8.766,31H19.812a4.8,4.8,0,0,0,4.824-4.371,1.211,1.211,0,0,0-2.412-.22,2.394,2.394,0,0,1-2.412,2.169H8.766a2.41,2.41,0,0,1-2.411-2.194L4.894,7.447h18.79L22.65,20.856a1.211,1.211,0,0,0,1.114,1.3c.032,0,.063,0,.094,0a1.211,1.211,0,0,0,1.206-1.118l1.049-13.6h1.254a1.211,1.211,0,0,0,0-2.422Zm-9.748,0h-6.66V3.633A1.212,1.212,0,0,1,12.17,2.422h4.238a1.212,1.212,0,0,1,1.211,1.211Z" fill="rgba(230,22,122,0.5)"/>
  <path id="Trazado_10" data-name="Trazado 10" d="M8.787,9.87A1.211,1.211,0,0,0,7.63,11.133l.605,13.861a1.211,1.211,0,0,0,1.209,1.158H9.5a1.211,1.211,0,0,0,1.157-1.263L10.05,11.027A1.211,1.211,0,0,0,8.787,9.87Z" fill="rgba(230,22,122,0.5)"/>
  <path id="Trazado_11" data-name="Trazado 11" d="M18.528,11.027l-.605,13.861a1.211,1.211,0,0,0,1.157,1.263h.054a1.211,1.211,0,0,0,1.209-1.158l.605-13.861a1.211,1.211,0,0,0-2.42-.106Z" fill="rgba(230,22,122,0.5)"/>
  <path id="Trazado_12" data-name="Trazado 12" d="M13.078,11.08V24.941a1.211,1.211,0,0,0,2.422,0V11.08a1.211,1.211,0,1,0-2.422,0Z" fill="rgba(230,22,122,0.5)"/>
</svg>
